<svg viewBox="74.59 28 44 46" height="75" width="75" fill="currentColor" stroke="none" xmlns="http://www.w3.org/2000/svg" xmlns:xlink="http://www.w3.org/1999/xlink" version="1.1">
  <path d="M 100.523438 73.3125 C 100.339844 73.3125 100.160156 73.238281 100.03125 73.097656 C 100.003906 73.070312 97.464844 70.304688 94.601562 66.367188 C 94.226562 65.84375 93.859375 65.328125 93.503906 64.816406 C 92.773438 65.164062 91.917969 65.359375 90.941406 65.40625 C 85.257812 65.671875 79.683594 62.550781 76.734375 57.449219 C 73.394531 51.679688 73.984375 44.457031 78.347656 37.636719 C 82.515625 31.121094 90.726562 27.777344 99.265625 29.125 C 107.839844 30.472656 114.457031 36.222656 116.535156 44.125 C 118.125 50.1875 117.535156 55.257812 114.78125 59.1875 C 111.464844 63.921875 105.4375 66.179688 100.65625 66.765625 L 101.191406 72.578125 C 101.21875 72.867188 101.058594 73.136719 100.796875 73.253906 C 100.707031 73.292969 100.617188 73.3125 100.523438 73.3125 Z M 94.636719 64.078125 C 96.5625 66.867188 98.449219 69.199219 99.664062 70.636719 L 99.257812 66.230469 C 99.242188 66.054688 99.296875 65.875 99.410156 65.738281 C 99.523438 65.601562 99.6875 65.515625 99.863281 65.5 C 101.445312 65.355469 109.539062 64.332031 113.683594 58.417969 C 116.199219 54.824219 116.722656 50.128906 115.234375 44.464844 C 113.296875 37.085938 107.097656 31.714844 99.054688 30.449219 C 91.042969 29.1875 83.359375 32.292969 79.476562 38.359375 C 75.394531 44.742188 74.816406 51.457031 77.894531 56.777344 C 80.597656 61.449219 85.691406 64.3125 90.878906 64.0625 C 91.59375 64.03125 92.210938 63.90625 92.742188 63.6875 C 89.910156 59.433594 87.96875 55.53125 86.953125 52.066406 C 84.578125 43.9375 87.0625 42.472656 87.882812 42.214844 C 90.207031 41.488281 93.074219 44.707031 94.851562 50.046875 C 96.933594 56.292969 97.128906 60.710938 95.4375 63.175781 C 95.203125 63.515625 94.9375 63.816406 94.636719 64.078125 Z M 88.53125 43.460938 C 88.441406 43.460938 88.359375 43.472656 88.28125 43.496094 C 87.386719 43.777344 86.636719 46.1875 88.242188 51.6875 C 89.363281 55.515625 91.589844 59.515625 93.875 62.957031 C 94.042969 62.792969 94.195312 62.613281 94.332031 62.414062 C 95.75 60.34375 95.492188 56.214844 93.578125 50.46875 C 91.996094 45.71875 89.746094 43.460938 88.53125 43.460938 Z M 88.53125 43.460938 " />
  <path d="M 110.988281 56.070312 C 109.285156 56.070312 106.625 52.640625 105.542969 51.144531 C 105.328125 50.84375 105.394531 50.421875 105.695312 50.207031 C 105.996094 49.988281 106.414062 50.058594 106.632812 50.359375 C 108.28125 52.644531 110.296875 54.683594 110.933594 54.726562 C 111.453125 53.714844 109.742188 47.679688 107.855469 42.664062 C 107.722656 42.316406 107.898438 41.929688 108.246094 41.796875 C 108.59375 41.667969 108.980469 41.84375 109.109375 42.191406 C 110.082031 44.769531 113.164062 53.335938 112.128906 55.34375 C 111.90625 55.777344 111.53125 56.035156 111.078125 56.066406 C 111.046875 56.070312 111.015625 56.070312 110.988281 56.070312 Z M 110.988281 56.070312 " />
  <path d="M 102.183594 46.746094 C 101.816406 46.746094 101.460938 46.703125 101.113281 46.613281 C 99.382812 46.164062 98.570312 44.746094 98.539062 44.6875 C 98.355469 44.363281 98.472656 43.953125 98.792969 43.773438 C 99.117188 43.589844 99.523438 43.703125 99.707031 44.023438 C 99.71875 44.046875 100.300781 45.023438 101.464844 45.316406 C 102.417969 45.558594 103.527344 45.296875 104.757812 44.539062 C 105.074219 44.347656 105.488281 44.445312 105.679688 44.761719 C 105.875 45.078125 105.777344 45.488281 105.460938 45.683594 C 104.308594 46.390625 103.210938 46.746094 102.183594 46.746094 Z M 102.183594 46.746094 " />
  <path d="M 114.207031 48.289062 C 114.003906 48.289062 113.800781 48.265625 113.601562 48.210938 C 112.230469 47.859375 111.59375 46.398438 111.566406 46.339844 C 111.421875 45.996094 111.578125 45.601562 111.921875 45.457031 C 112.261719 45.3125 112.652344 45.46875 112.800781 45.808594 C 112.914062 46.066406 113.335938 46.761719 113.941406 46.914062 C 114.375 47.023438 114.890625 46.847656 115.472656 46.394531 C 115.761719 46.164062 116.183594 46.214844 116.414062 46.507812 C 116.640625 46.800781 116.589844 47.222656 116.296875 47.449219 C 115.585938 48.007812 114.882812 48.289062 114.207031 48.289062 Z M 114.207031 48.289062 " />
  <path d="M 106.921875 58.820312 C 105.832031 58.820312 104.933594 58.523438 104.246094 57.933594 C 102.878906 56.765625 102.914062 54.90625 102.914062 54.828125 C 102.925781 54.457031 103.21875 54.164062 103.605469 54.175781 C 103.972656 54.183594 104.265625 54.492188 104.257812 54.859375 C 104.257812 54.886719 104.25 56.179688 105.125 56.917969 C 105.757812 57.457031 106.738281 57.605469 108.035156 57.363281 C 108.398438 57.296875 108.75 57.535156 108.816406 57.902344 C 108.882812 58.265625 108.644531 58.617188 108.28125 58.683594 C 107.796875 58.773438 107.34375 58.820312 106.921875 58.820312 Z M 106.921875 58.820312 " />
</svg>